<svg width="44" height="44" viewBox="0 0 44 44" fill="none" xmlns="http://www.w3.org/2000/svg">
<g filter="url(#filter0_b_320_7892)">
<circle cx="22" cy="22" r="22" fill="white" fill-opacity="0.2"/>
</g>
<path d="M22.2398 15.1095C22.372 14.8006 22.5587 14.5094 22.8003 14.2509C23.1187 13.9102 23.5118 13.6511 23.9467 13.4935C23.0235 13.1737 22.032 13 21 13C16.0294 13 12 17.0295 12 22C12 26.9706 16.0294 31 21 31C25.6332 31 29.4486 27.4991 29.9453 22.9983C29.437 23.008 28.9327 22.8848 28.4829 22.6381L27.9999 22.3732L27.9899 22.3787C27.7932 26.0686 24.739 29 21 29C17.134 29 14 25.866 14 22C14 18.134 17.134 15 21 15C21.4231 15 21.8374 15.0376 22.2398 15.1095Z" fill="white"/>
<path d="M28 19.9298L26.1809 20.9276C25.8863 21.0893 25.5218 20.9711 25.3669 20.6636C25.3052 20.5412 25.2839 20.401 25.3063 20.2646L25.6537 18.1513L24.1821 16.6546C23.9437 16.4121 23.9388 16.014 24.1712 15.7652C24.2637 15.6662 24.385 15.6017 24.5161 15.5819L26.5499 15.2735L27.4595 13.3507C27.6068 13.0392 27.9682 12.9114 28.2668 13.0651C28.3856 13.1263 28.4819 13.2267 28.5405 13.3507L29.4501 15.2735L31.4839 15.5819C31.8133 15.6318 32.0416 15.9509 31.9937 16.2947C31.9746 16.4315 31.9129 16.558 31.8179 16.6546L30.3463 18.1513L30.6937 20.2646C30.75 20.607 30.5296 20.9321 30.2015 20.9908C30.0708 21.0142 29.9364 20.992 29.8191 20.9276L28 19.9298Z" fill="white"/>
<path d="M26.2423 28.6566C25.8518 28.266 25.8518 27.6329 26.2423 27.2424C26.6328 26.8518 27.266 26.8518 27.6565 27.2424L30.485 30.0708C30.8755 30.4613 30.8755 31.0945 30.485 31.485C30.0944 31.8755 29.4613 31.8755 29.0707 31.485L26.2423 28.6566Z" fill="white"/>
<path fill-rule="evenodd" clip-rule="evenodd" d="M16 22C16 19.2386 18.2386 17 21 17C21.5523 17 22 17.4478 22 18C22 18.5523 21.5523 19 21 19C19.3431 19 18 20.3432 18 22C18 22.5523 17.5523 23 17 23C16.4477 23 16 22.5523 16 22Z" fill="white"/>
<defs>
<filter id="filter0_b_320_7892" x="-40" y="-40" width="124" height="124" filterUnits="userSpaceOnUse" color-interpolation-filters="sRGB">
<feFlood flood-opacity="0" result="BackgroundImageFix"/>
<feGaussianBlur in="BackgroundImageFix" stdDeviation="20"/>
<feComposite in2="SourceAlpha" operator="in" result="effect1_backgroundBlur_320_7892"/>
<feBlend mode="normal" in="SourceGraphic" in2="effect1_backgroundBlur_320_7892" result="shape"/>
</filter>
</defs>
</svg>
