<svg width="24" height="24" viewBox="0 0 24 24" fill="none" xmlns="http://www.w3.org/2000/svg">
<g filter="url(#filter0_b_364_7991)">
<path d="M23.9124 17.2841C23.746 16.8295 23.4272 16.5881 23.0663 16.3866C22.9983 16.3468 22.9351 16.3139 22.8835 16.2905C22.7757 16.2343 22.6655 16.1804 22.5554 16.1241C21.428 15.5266 20.5468 14.7721 19.9374 13.8793C19.7312 13.577 19.5882 13.3052 19.4874 13.0826C19.4358 12.9326 19.4382 12.8482 19.4757 12.7709C19.5038 12.7123 19.5788 12.6514 19.621 12.6209C19.8155 12.4921 20.0147 12.3632 20.1507 12.2765C20.3921 12.1195 20.5843 11.9953 20.7062 11.9109C21.1702 11.5875 21.4937 11.2431 21.6952 10.8588C21.9812 10.3175 22.0163 9.69886 21.796 9.11772C21.4913 8.31163 20.7272 7.81017 19.8038 7.81017C19.6116 7.81017 19.4171 7.83126 19.2249 7.87344C19.1733 7.88515 19.1241 7.89687 19.0749 7.90859C19.0843 7.36026 19.0702 6.77444 19.021 6.20268C18.8476 4.18745 18.1421 3.13063 17.4062 2.28939C17.0991 1.9379 16.5647 1.42472 15.7632 0.965433C14.6452 0.323373 13.3796 0 11.9991 0C10.6233 0 9.35772 0.323373 8.23975 0.96309C7.4335 1.42237 6.89913 1.9379 6.59444 2.28705C5.8585 3.12829 5.15303 4.18511 4.9796 6.20033C4.93038 6.77209 4.91866 7.35792 4.92569 7.90624C4.87647 7.89453 4.82491 7.88281 4.77569 7.87109C4.5835 7.82892 4.38663 7.80783 4.19678 7.80783C3.27335 7.80783 2.50928 8.30929 2.2046 9.11538C1.98428 9.69651 2.01944 10.3151 2.30538 10.8564C2.50694 11.2407 2.83272 11.5852 3.29444 11.9086C3.41866 11.9953 3.6085 12.1195 3.84991 12.2741C3.98116 12.3585 4.171 12.4827 4.3585 12.6069C4.38663 12.6256 4.48741 12.7006 4.52256 12.7709C4.56241 12.8506 4.56241 12.9373 4.50381 13.0966C4.40538 13.3145 4.26241 13.5817 4.06085 13.8769C3.46319 14.751 2.60772 15.4915 1.51788 16.082C0.938971 16.3889 0.338971 16.5928 0.0858464 17.2817C-0.106341 17.8019 0.0202213 18.3948 0.505377 18.8939C0.664752 19.065 0.866315 19.2173 1.11944 19.3579C1.71475 19.6859 2.221 19.8476 2.61944 19.9578C2.68975 19.9788 2.85147 20.0304 2.92178 20.0937C3.09991 20.2483 3.07413 20.4827 3.31085 20.8248C3.45381 21.038 3.61788 21.1833 3.75381 21.277C4.24835 21.6191 4.80616 21.6402 5.39678 21.6637C5.92881 21.6848 6.5335 21.7082 7.22256 21.9355C7.5085 22.0292 7.80616 22.212 8.14834 22.4229C8.97334 22.9314 10.1054 23.625 11.9968 23.625C13.8905 23.625 15.0272 22.9267 15.8593 22.4182C16.2015 22.2097 16.4968 22.0269 16.7733 21.9355C17.4624 21.7082 18.0671 21.6848 18.5991 21.6637C19.1897 21.6402 19.7452 21.6191 20.2421 21.277C20.3968 21.1692 20.5937 20.9935 20.7483 20.7264C20.9171 20.4381 20.9147 20.2343 21.0741 20.096C21.1397 20.0398 21.2827 19.9906 21.3601 19.9671C21.7608 19.857 22.2741 19.6953 22.8812 19.3602C23.1507 19.2126 23.3593 19.0509 23.5257 18.8658C23.528 18.8634 23.5304 18.8611 23.5327 18.8588C23.9851 18.3667 24.0999 17.7926 23.9124 17.2841ZM22.2319 18.1862C21.2054 18.7533 20.5233 18.6924 19.9937 19.0322C19.5437 19.3227 19.8085 19.9484 19.4827 20.1733C19.0796 20.4522 17.8913 20.1546 16.3562 20.6607C15.0905 21.0802 14.2819 22.2823 12.0015 22.2823C9.71631 22.2823 8.93116 21.0849 7.64678 20.6607C6.11163 20.1546 4.921 20.4522 4.52022 20.1733C4.19444 19.9484 4.45928 19.3227 4.00928 19.0322C3.4796 18.69 2.79756 18.751 1.771 18.1862C1.1171 17.8254 1.48741 17.6028 1.70538 17.4973C5.42256 15.7 6.01319 12.9209 6.04131 12.7123C6.07413 12.4639 6.10928 12.2671 5.83506 12.0117C5.57022 11.7656 4.39131 11.0369 4.06553 10.8096C3.52413 10.4323 3.28741 10.055 3.46319 9.59107C3.58506 9.27004 3.88506 9.15053 4.20147 9.15053C4.29991 9.15053 4.40069 9.16224 4.49678 9.18333C5.08975 9.31221 5.66631 9.60981 5.99913 9.68948C6.046 9.7012 6.08584 9.70589 6.121 9.70589C6.29913 9.70589 6.36006 9.61684 6.34834 9.41298C6.31084 8.76389 6.21709 7.49851 6.32022 6.31515C6.46084 4.68891 6.98584 3.88282 7.60928 3.16812C7.90928 2.826 9.31553 1.34036 12.0038 1.34036C14.6991 1.34036 16.0983 2.826 16.3983 3.16812C17.0218 3.88048 17.5468 4.68657 17.6874 6.31515C17.7905 7.49851 17.7015 8.76389 17.6593 9.41298C17.6452 9.62622 17.7108 9.70589 17.8866 9.70589C17.9218 9.70589 17.964 9.7012 18.0085 9.68948C18.3413 9.60981 18.9179 9.31221 19.5108 9.18333C19.6069 9.16224 19.7077 9.15053 19.8062 9.15053C20.1226 9.15053 20.4226 9.27238 20.5444 9.59107C20.7202 10.055 20.4812 10.4323 19.9421 10.8096C19.6163 11.0369 18.4374 11.7656 18.1726 12.0117C17.8983 12.2648 17.9335 12.4616 17.9663 12.7123C17.9921 12.9209 18.5851 15.7 22.3022 17.4973C22.5132 17.6028 22.8858 17.8254 22.2319 18.1862Z" fill="white" fill-opacity="0.8"/>
</g>
<defs>
<filter id="filter0_b_364_7991" x="-16" y="-16" width="55.9985" height="55.625" filterUnits="userSpaceOnUse" color-interpolation-filters="sRGB">
<feFlood flood-opacity="0" result="BackgroundImageFix"/>
<feGaussianBlur in="BackgroundImageFix" stdDeviation="8"/>
<feComposite in2="SourceAlpha" operator="in" result="effect1_backgroundBlur_364_7991"/>
<feBlend mode="normal" in="SourceGraphic" in2="effect1_backgroundBlur_364_7991" result="shape"/>
</filter>
</defs>
</svg>
