<svg xmlns="http://www.w3.org/2000/svg"><path d="M59.196 46.07V19.236a4.353 4.353 0 00-2.176-3.776L33.514 1.895a4.353 4.353 0 00-4.353 0L5.655 15.459a4.353 4.353 0 00-2.176 3.776V46.07a4.353 4.353 0 002.176 3.776l23.506 13.57a4.354 4.354 0 004.353 0l23.506-13.57a4.353 4.353 0 002.176-3.776z" fill="#ace0e4"></path><path d="M38.999 57.11c-4.218-1.132-7.342-2.53-9.279-4.155a3.546 3.546 0 01-1.232-2.266c-.5-4.454.676-8.934 3.3-12.567a3.483 3.483 0 012.353-1.371 19.183 19.183 0 013.389-.14.654.654 0 00.596-.339c.159-.28.335-.55.527-.81a1.74 1.74 0 011.17-.68c1.448-.201 3.141-.044 5.035.463 1.893.507 3.438 1.219 4.592 2.115a1.727 1.727 0 01.672 1.176c.038.32.055.643.053.966a.653.653 0 00.348.59 19.272 19.272 0 012.864 1.817 3.496 3.496 0 011.352 2.364c.456 4.46-.765 8.93-3.426 12.538a3.541 3.541 0 01-2.2 1.347c-2.49.431-5.894.081-10.114-1.049z" fill="#12a7b2"></path><path d="M42.605 43.655a3.508 3.508 0 11-4.303 2.492 3.512 3.512 0 014.299-2.481l.004-.011zm.67-2.512a6.12 6.12 0 103.72 2.851 6.121 6.121 0 00-3.715-2.853l-.005.002z" fill="#ffffff"></path><path d="M51.89 12.832a1.813 1.813 0 00.124-1.944 1.783 1.783 0 00-1.71-.916h-.031l-7.05 1.088 2.634-8.78a1.811 1.811 0 00-.938-2.098 1.767 1.767 0 00-2.216.553L32.038 15.507a1.811 1.811 0 00.603 2.65c.303.162.648.234.99.205h.025l7.051-1.088-2.633 8.782a1.81 1.81 0 00.936 2.098 1.77 1.77 0 002.218-.553L51.892 12.83l-.002.002z" fill="#12a7b2"></path><path d="M15.412 42.33a.436.436 0 01-.217 0L4.504 39.458a.435.435 0 01-.307-.307l-2.88-10.748a.435.435 0 01.114-.42l7.815-7.835a.435.435 0 01.414-.113l10.682 2.868a.435.435 0 01.307.31L23.53 33.96a.434.434 0 01-.113.42L15.6 42.216a.435.435 0 01-.187.113z" fill="#ffffff"></path><path d="M20.69 21.653l-10.682-2.87a1.74 1.74 0 00-1.682.452L.508 27.07a1.741 1.741 0 00-.453 1.665l2.88 10.754a1.742 1.742 0 001.232 1.232l10.682 2.868a1.74 1.74 0 001.689-.45l7.815-7.835a1.741 1.741 0 00.45-1.683l-2.879-10.747a1.74 1.74 0 00-1.234-1.221zm-10.882-.218l8.31 2.233-6.094 6.064-8.288-2.21 6.072-6.087zm-6.695 8.626l8.25 2.193 2.221 8.29L5.33 38.33 3.113 30.06zm12.99 9.809l-2.223-8.292 6.046-6.025 2.216 8.27-6.04 6.047z" fill="#12a7b2"></path></svg>

