<svg width="44" height="44" viewBox="0 0 44 44" fill="none" xmlns="http://www.w3.org/2000/svg">
<g filter="url(#filter0_b_320_7888)">
<circle cx="22" cy="22" r="22" fill="white" fill-opacity="0.2"/>
</g>
<path fill-rule="evenodd" clip-rule="evenodd" d="M15.6113 16.3518C15.1457 15.9606 14.4533 15.9871 14.0186 16.4321C13.5562 16.9057 13.5564 17.6683 14.0185 18.1415L15.9789 20.1489C16.4716 20.6535 17.2726 20.6536 17.7654 20.1489L19.7257 18.1415C20.1871 17.6691 20.187 16.9046 19.7256 16.4321C19.2891 15.9851 18.5993 15.9587 18.1326 16.352V16.2493C18.1326 15.3509 18.8719 14.6208 19.7878 14.6208H24.5267C25.4418 14.6208 26.1819 15.3517 26.1819 16.2493V21.7283C26.1819 22.4383 26.7452 23.0156 27.4425 23.0156C28.1398 23.0156 28.7031 22.4383 28.7031 21.7283V16.2493C28.7031 13.9281 26.8235 12.0469 24.5066 12.0469H19.8079C17.4902 12.0469 15.6113 13.9273 15.6113 16.2493V16.3518ZM25.8674 27.648V27.7507C25.8674 28.6491 25.1281 29.3792 24.2122 29.3792H19.4733C18.5582 29.3792 17.8181 28.6483 17.8181 27.7507V22.2717C17.8181 21.5617 17.2548 20.9844 16.5575 20.9844C15.8602 20.9844 15.2969 21.5617 15.2969 22.2717V27.7507C15.2969 30.0719 17.1765 31.9531 19.4934 31.9531H24.1921C26.5098 31.9531 28.3887 30.0727 28.3887 27.7507V27.6482C28.8543 28.0394 29.5467 28.0129 29.9814 27.5679C30.4438 27.0943 30.4436 26.3317 29.9815 25.8585L28.0211 23.8511C27.5284 23.3465 26.7274 23.3464 26.2346 23.8511L24.2743 25.8585C23.8129 26.3309 23.813 27.0954 24.2744 27.5679C24.7109 28.0149 25.4007 28.0413 25.8674 27.648Z" fill="white"/>
<defs>
<filter id="filter0_b_320_7888" x="-40" y="-40" width="124" height="124" filterUnits="userSpaceOnUse" color-interpolation-filters="sRGB">
<feFlood flood-opacity="0" result="BackgroundImageFix"/>
<feGaussianBlur in="BackgroundImageFix" stdDeviation="20"/>
<feComposite in2="SourceAlpha" operator="in" result="effect1_backgroundBlur_320_7888"/>
<feBlend mode="normal" in="SourceGraphic" in2="effect1_backgroundBlur_320_7888" result="shape"/>
</filter>
</defs>
</svg>
